#!OML:ASF E:\Style4\Style4.ASF
:FULLY-SPECIFIED
:DEGREES
719
root -0.485255 17.0708 -3.09038 2.27954 20.9738 4.62663
lowerback 14.5264 5.87074 3.17793
upperback 9.98581 8.18851 2.43855
thorax 2.58124 4.25021 -0.173812
lowerneck 5.19916 -11.4544 -6.64021
upperneck -4.43486 -15.2264 12.4791
head -0.656928 -7.84312 4.90282
rclavicle -2.46493e-014 3.49861e-014
rhumerus -3.99455 81.39 -91.6398
rradius 72.9726
rwrist -69.4737
rhand -22.1148 18.8105
rfingers 7.12502
rthumb 4.29794 -11.1258
lclavicle -2.46493e-014 3.49861e-014
lhumerus -26.5342 -53.2771 70.9438
lradius 102.381
lwrist 61.7534
lhand -27.2663 31.6166
lfingers 7.12502
lthumb -0.677255 61.5953
rfemur -25.3944 -13.2059 13.9141
rtibia 51.2651
rfoot -25.148 -17.2467
rtoes -6.3644
lfemur -27.1744 -7.96295 -23.0997
ltibia 44.8523
lfoot -17.1495 -2.55231
ltoes -10.211
720
root -0.464925 17.078 -3.08675 2.27637 20.6472 4.75674
lowerback 14.534 5.88424 3.18597
upperback 9.95571 8.20552 2.50521
thorax 2.53631 4.25516 -0.115227
lowerneck 5.3112 -11.5382 -6.66598
upperneck -4.6303 -15.334 12.3935
head -0.727064 -7.90126 4.89514
rclavicle -4.77083e-015 6.67916e-014
rhumerus -6.24442 83.2313 -93.4369
rradius 74.2452
rwrist -69.7082
rhand -22.7721 18.3496
rfingers 7.12502
rthumb 3.66317 -11.5986
lclavicle -4.77083e-015 6.67916e-014
lhumerus -29.8911 -53.5289 72.9447
lradius 103.881
lwrist 61.2517
lhand -27.7408 31.3646
lfingers 7.12502
lthumb -1.13556 61.3413
rfemur -25.3008 -12.9789 13.6979
rtibia 51.1418
rfoot -25.0833 -17.1549
rtoes -5.6592
lfemur -26.9474 -7.81643 -23.3188
ltibia 44.6792
lfoot -17.1998 -2.30276
ltoes -10.5564
721
root -0.445516 17.0871 -3.08477 2.13338 20.3924 4.70715
lowerback 14.6281 5.83845 3.34781
upperback 9.94041 8.16548 2.62663
thorax 2.47473 4.23743 -0.0847769
lowerneck 5.42444 -11.6276 -6.60854
upperneck -4.88604 -15.4455 12.149
head -0.834538 -7.95924 4.83358
rclavicle 2.3059e-014 -5.40694e-014
rhumerus -8.49962 85.0684 -95.198
rradius 75.7158
rwrist -70.3649
rhand -23.838 17.9565
rfingers 7.12502
rthumb 2.63381 -12.007
lclavicle 2.3059e-014 -5.40694e-014
lhumerus -33.0766 -53.6955 74.7923
lradius 105.405
lwrist 60.6469
lhand -28.1172 31.2721
lfingers 7.12502
lthumb -1.49913 61.2466
rfemur -25.075 -12.7331 13.6504
rtibia 50.9564
rfoot -24.9935 -17.1394
rtoes -5.54018
lfemur -26.6555 -7.71899 -23.3614
ltibia 44.504
lfoot -17.285 -2.00621
ltoes -11.2018
722
root -0.423567 17.0975 -3.08287 2.03867 20.0716 4.69017
lowerback 14.6733 5.78281 3.48168
upperback 9.90794 8.10768 2.71819
thorax 2.42021 4.20983 -0.063816
lowerneck 5.44722 -11.6637 -6.56755
upperneck -5.03204 -15.4933 11.87
head -0.903082 -7.97931 4.75542
rclavicle -1.19271e-014 5.725e-014
rhumerus -11.509 86.9227 -97.7388
rradius 77.1378
rwrist -70.8464
rhand -24.4743 17.7705
rfingers 7.12502
rthumb 2.01927 -12.1997
lclavicle -1.19271e-014 5.725e-014
lhumerus -36.1383 -53.6487 76.6358
lradius 106.799
lwrist 59.9993
lhand -28.4333 31.5243
lfingers 7.12502
lthumb -1.80441 61.4964
rfemur -24.8891 -12.4765 13.5685
rtibia 50.7372
rfoot -24.8639 -17.0636
rtoes -5.85675
lfemur -26.3918 -7.56974 -23.4382
ltibia 44.3208
lfoot -17.3832 -1.77129
ltoes -11.4153
723
root -0.402097 17.1068 -3.07969 2.02576 19.6491 4.71436
lowerback 14.6641 5.80254 3.59351
upperback 9.81829 8.14463 2.74722
thorax 2.34163 4.22879 -0.10433
lowerneck 5.50781 -11.7198 -6.4539
upperneck -5.13076 -15.5629 11.6748
head -0.960637 -8.01339 4.69142
rclavicle 2.54444e-014 3.81667e-014
rhumerus -20.427 88.4692 -106.251
rradius 78.4393
rwrist -70.899
rhand -24.0051 17.0186
rfingers 7.12502
rthumb 2.47244 -12.9468
lclavicle 2.54444e-014 3.81667e-014
lhumerus -38.9864 -53.742 78.3679
lradius 108.169
lwrist 59.3597
lhand -28.8435 31.4845
lfingers 7.12502
lthumb -2.2006 61.4529
rfemur -24.7959 -12.2124 13.4743
rtibia 50.5023
rfoot -24.7024 -16.9285
rtoes -5.93585
lfemur -26.1913 -7.38305 -23.5392
ltibia 44.1342
lfoot -17.3424 -1.63746
ltoes -10.9048
724
root -0.382305 17.1189 -3.07411 2.04706 19.1813 4.76977
lowerback 14.6046 5.84861 3.67609
upperback 9.71087 8.21091 2.72379
thorax 2.27512 4.26227 -0.181971
lowerneck 5.57477 -11.786 -6.31214
upperneck -5.17447 -15.6445 11.5407
head -0.999207 -8.05468 4.63889
rclavicle 1.16885e-013 -4.92986e-014
rhumerus -62.0293 89.4032 -147.591
rradius 79.6724
rwrist -70.4563
rhand -23.4577 15.3308
rfingers 7.12502
rthumb 3.00114 -14.6279
lclavicle 1.16885e-013 -4.92986e-014
lhumerus -41.7571 -53.9138 79.9567
lradius 109.62
lwrist 58.7319
lhand -29.2839 30.8731
lfingers 7.12502
lthumb -2.62592 60.8367
rfemur -24.737 -11.9332 13.363
rtibia 50.2775
rfoot -24.5161 -16.8076
rtoes -6.272
lfemur -25.9962 -7.19691 -23.6598
ltibia 43.9298
lfoot -17.337 -1.39261
ltoes -10.5892
725
root -0.360668 17.1336 -3.06617 2.17255 18.6603 4.8288
lowerback 14.346 5.91362 3.70401
upperback 9.61098 8.28648 2.72369
thorax 2.31022 4.29826 -0.183865
lowerneck 5.572 -11.8413 -6.34065
upperneck -5.1299 -15.728 11.4354
head -0.984718 -8.09192 4.60905
rclavicle -1.59028e-014 6.36111e-015
rhumerus -144.565 89.2157 -229.821
rradius 81.0328
rwrist -69.8137
rhand -23.2505 13.37
rfingers 7.12502
rthumb 3.20116 -16.5858
lclavicle -1.59028e-014 6.36111e-015
lhumerus -44.3203 -53.9616 81.4938
lradius 111.03
lwrist 58.0079
lhand -29.7884 30.5514
lfingers 7.12502
lthumb -3.11311 60.5084
rfemur -24.8003 -11.5777 13.2535
rtibia 50.0523
rfoot -24.3787 -16.6722
rtoes -6.42524
lfemur -25.885 -6.9525 -23.7781
ltibia 43.7146
lfoot -17.4412 -1.07776
ltoes -11.0021
